<svg width="984" height="134" viewBox="0 0 984 134" fill="none" xmlns="http://www.w3.org/2000/svg">
<g clip-path="url(#clip0_687_1784)">
<path d="M335.178 1.07182H271.893L252.38 23.9225V111.41L271.893 134H333.612L352.387 113.561V21.2727L335.171 1.07182H335.178ZM329.905 109.981L327.398 112.846H276.705L274.153 109.981V34.2239L263.114 24.3095V20.4465H327.227L329.905 23.2823V109.988V109.981ZM239.012 3.15592V111.41L219.499 134H157.78L139.005 113.561V94.2459L142.481 91.8938H157.788L161.487 94.2459V109.988L163.994 112.854H214.687L217.239 109.988V2.89541L220.827 1.07182H235.656L239.02 3.15592H239.012ZM453.319 64.2721L469.074 40.0965L443.764 1.07182H382.09L365.754 18.7494V116.397L383.381 133.993H446.651L459.854 112.846L471.945 93.4718L453.319 64.2646V64.2721ZM433.716 20.4539L445.912 40.8781L436.737 56.2557H402.283C397.27 61.2725 390.198 68.671 390.198 68.671H387.513V20.4465H433.716V20.4539ZM387.513 112.854V74.1715H434.47L445.912 93.3229L434.261 112.846H387.521L387.513 112.854ZM531.374 132.668H526.018L512.047 116.873V17.6255L526.018 1.36211H603.849L607.116 4.59246V17.3054L603.849 20.7144H535.231L531.374 24.6668V68.4849H535.081L546.442 55.2509H598.814L602.081 57.3276V72.4894L598.814 74.5362H531.382V132.668H531.374ZM703.969 3.25268L702.059 1.24302H644.726L642.824 3.24524L620.491 26.7806V130.792L623.139 132.772H640.266L642.824 130.792V74.499H703.969V130.405L706.445 132.772H723.997L726.309 130.405V26.7881L703.976 3.25268H703.969ZM703.969 56.2408H657.34L644.935 68.8348H642.832V26.7806H703.976V56.2334L703.969 56.2408ZM760.57 130.517L757.788 132.772H741.787L739.669 130.517V3.88535L742.235 1.24302H757.788L760.57 3.88535V41.1088L743.66 60.7961L744.682 62.5006L760.57 62.4336V130.524V130.517ZM853.148 76.0026L854.894 73.3379L861.361 63.4012L877.16 39.1513L851.776 0H789.893L773.505 17.7372V115.705L791.191 133.36H795.331V73.3379H827.055L865.866 133.36H889.729L853.148 76.0026ZM810.152 55.3551C805.125 60.3867 798.031 67.815 798.031 67.815H795.338V19.4416H841.698L853.931 39.9328L844.719 55.3625H810.152V55.3551Z" fill="#FF6100"/>
<path d="M932.336 42.4263V54.2312L932.053 54.5587L926.57 60.9822H906.37V71.8493L906.452 71.946L907.213 72.802H931.143L932.329 74.0376V78.2579L930.897 79.8209H905.617L900.634 74.0525L899.142 72.3256V61.1236L899.262 60.9822L904.744 54.5587H924.87V43.0887L923.982 42.1509H918.932V42.136H900.224L900.179 42.0913L899.142 41.0716V36.8364L900.224 35.7051H918.828L918.939 35.8391V35.7125H926.623L932.09 42.136L932.329 42.4188L932.336 42.4263ZM932.098 95.6824L926.63 89.2589H918.947V89.3855L918.835 89.2589H900.231L899.15 90.3903V94.6255L900.187 95.6452L900.231 95.6899H918.939V95.7047H923.989L924.877 96.6426V108.113H904.752L899.269 114.536L899.15 114.677V125.879L900.642 127.606L905.624 133.375H930.904L932.336 131.812V127.591L931.15 126.356H907.221L906.46 125.5L906.378 125.403V114.536H926.578L932.06 108.113L932.344 107.785V95.9801L932.105 95.6973L932.098 95.6824ZM974.914 42.4188V73.0402L968.686 79.8209H948.21L941.735 72.3256V43.2971L948.21 35.7125H969.208L974.922 42.4114L974.914 42.4188ZM967.455 43.0887L966.567 42.1509H945.293V43.4311L948.956 46.721V71.8567L949.799 72.8094H966.62L967.448 71.8567V43.0887H967.455ZM983.343 108.902H977.078V90.0926L976.22 89.4301H970.498L969.611 90.0926V113.903V114.037H968.745L963.688 108.902H950.56L949.18 107.279V90.0926L948.322 89.4301H942.601L941.72 90.0926V108.909L947.352 115.511L948.068 116.352H969.611V132.705L970.469 133.375H976.19L977.07 132.705V116.352H983.336L984 115.496V109.787L983.336 108.902H983.343Z" fill="#FF6100"/>
<path d="M148.352 13.3382V7.4506L143.652 1.93519H126.376L121.05 8.17259V32.0504L126.376 38.2134H143.219L148.344 32.6384V27.3686L147.397 26.7285H143.219L142.212 27.3686V31.6633L141.526 32.4449H127.689L126.995 31.6633V10.9861L123.982 8.2768V7.21986H141.481L142.212 7.99396V13.4052L143.219 13.9187H147.397L148.344 13.3307L148.352 13.3382ZM180.986 2.65718V37.4914L180.36 38.1389H175.571L174.892 37.4914V22.2328H158.205V37.5956L157.504 38.1389H152.827L152.104 37.5956V2.65718L152.827 2.23292H157.504L158.205 2.65718V20.6846H158.78L162.166 17.2459H174.892V2.65718L175.571 2.23292H180.36L180.986 2.65718ZM86.9312 2.23292L87.7667 2.96979V6.92958L86.9312 7.66646H75.4588V37.8263L74.683 38.325H70.6699L69.8941 37.8263V7.66646L57.8323 7.48038L57.0342 6.81049V2.90281L57.8323 2.23292H69.8941V6.55742H71.3412L75.2052 2.23292H86.9312ZM117.365 33.7623V37.2234L116.47 38.0719H95.226L91.4143 33.7623V6.67651L95.226 2.24036H116.47L117.365 3.11866V6.58719L116.47 7.51759H97.7398L96.6881 8.59686V20.5581H97.7025L100.806 16.9481H115.098L115.993 17.5138V21.6522L115.098 22.2105H96.6955V32.0951L97.7771 32.9436H116.478L117.373 33.7698L117.365 33.7623ZM53.6327 69.4897L52.484 70.6806H40.8549L13.9042 39.7392H11.0548V69.4897L9.58526 70.6806H1.1189L0 69.4897V2.4711L1.3576 1.07178H9.58526L11.0548 2.4711V22.1733L2.10354 32.5937L2.64807 33.4944L12.0916 33.4497L39.6987 1.07178H50.9846L52.1185 2.82093L25.1156 35.0723L25.0261 35.8688L53.6476 69.4823L53.6327 69.4897ZM103.155 67.7778V47.3387H99.9105V70.4424H112.509V67.7703H103.155V67.7778ZM119.67 67.7778V47.3387H116.426V70.4424H129.024V67.7703H119.67V67.7778ZM143.951 60.1038V57.4913H135.85V50.1969H145.248V47.5099H132.605V70.6136H145.316V67.9415H135.85V60.1038H143.951ZM179.621 59.9326V57.3201H171.52V50.0257H180.919V47.3387H168.275V70.4424H180.986V67.7703H171.52V59.9326H179.621ZM76.7343 67.3684V63.1779H73.9445V66.1328L72.5571 67.882H65.508L64.2026 66.1477V51.4995L65.4856 49.8992H72.5869L73.9445 51.5144V54.1269H76.7343V50.2267L73.6089 47.108H64.4189L61.4054 50.2416V67.3535L64.3966 70.6732H73.6387L76.7343 67.3684ZM164.501 67.547V61.4138L161.092 57.4317H154.834V60.1857H161.062L161.711 61.0491V66.3115L159.794 68.0606H153.812L151.977 66.3263V51.3878L153.789 49.7875H159.824L161.711 51.4027V54.7075H164.508V50.1076L160.853 46.9815H152.73L149.18 50.1225V67.5321L152.7 70.8593H160.876L164.508 67.5396L164.501 67.547ZM96.0988 67.3758V50.2639L93.0777 47.1527H83.2762L80.2626 50.2862V67.3982L83.2538 70.7178H93.115L96.0988 67.3758ZM83.0524 66.1924V51.5441L84.6711 49.9439H91.7201L93.3015 51.5293V66.1775L91.7201 67.9266H84.6711L83.0524 66.1924Z" fill="#FF6100"/>
</g>
<defs>
<clipPath id="clip0_687_1784">
<rect width="984" height="134" fill="white"/>
</clipPath>
</defs>
</svg>
