<svg width="374" height="42" viewBox="0 0 374 42" fill="none" xmlns="http://www.w3.org/2000/svg">
<path d="M210.616 27.8982H212.127V31.1204L214.832 27.8982H216.676L213.599 31.4386L216.808 35.4034H214.846L212.141 31.916H212.127V35.4034H210.616V27.8982Z" fill="#003893"/>
<path d="M219.581 29.7419C221.225 29.7419 222.485 30.8425 222.485 32.6724C222.485 34.2636 221.424 35.5366 219.581 35.5366C217.738 35.5366 216.69 34.2636 216.69 32.6724C216.69 30.8425 217.95 29.7419 219.581 29.7419ZM219.581 34.4095C220.695 34.4095 220.973 33.415 220.973 32.5C220.973 31.6514 220.523 30.8558 219.581 30.8558C218.64 30.8558 218.189 31.6779 218.189 32.5C218.189 33.415 218.481 34.4095 219.581 34.4095Z" fill="#003893"/>
<path d="M223.451 29.8613H224.724V31.121H224.751C224.817 30.6038 225.4 29.7419 226.262 29.7419C226.408 29.7419 226.766 29.795 226.952 29.9011V31.2669C226.819 31.1873 226.514 31.121 226.262 31.121C225.096 31.121 224.883 32.5796 224.883 33.3752V35.404H223.438V29.8746L223.451 29.8613Z" fill="#003893"/>
<path d="M232.203 35.0858C231.673 35.3775 231.076 35.5233 230.307 35.5233C228.477 35.5233 227.416 34.4758 227.416 32.6592C227.416 31.0547 228.265 29.7419 229.988 29.7419C232.044 29.7419 232.627 31.1475 232.627 33.0835H228.808C228.875 33.9719 229.498 34.4758 230.386 34.4758C231.089 34.4758 231.686 34.2239 232.229 33.9189V35.0858H232.203ZM231.235 32.089C231.195 31.3862 230.864 30.7895 230.068 30.7895C229.272 30.7895 228.861 31.3464 228.795 32.089H231.248H231.235Z" fill="#003893"/>
<path d="M233.901 30.1531C234.458 29.9011 235.214 29.7288 235.824 29.7288C237.508 29.7288 238.211 30.4315 238.211 32.0625V32.7653C238.211 33.3222 238.211 33.7466 238.238 34.1576C238.238 34.5819 238.264 34.9665 238.304 35.3908H237.031C236.978 35.0991 236.978 34.7411 236.965 34.5687H236.938C236.607 35.1786 235.891 35.5234 235.228 35.5234C234.246 35.5234 233.292 34.9267 233.292 33.8792C233.292 33.057 233.689 32.5664 234.233 32.3012C234.777 32.036 235.493 31.983 236.089 31.983H236.885C236.885 31.0945 236.487 30.7896 235.639 30.7896C235.029 30.7896 234.419 31.0282 233.928 31.3863L233.888 30.1531H233.901ZM235.586 34.4759C236.023 34.4759 236.368 34.277 236.593 33.9852C236.832 33.6803 236.898 33.2692 236.898 32.8449H236.275C235.625 32.8449 234.671 32.951 234.671 33.7996C234.671 34.277 235.068 34.4759 235.586 34.4759Z" fill="#003893"/>
<path d="M246.549 29.2766C246.072 29.0777 245.555 28.9583 245.024 28.9583C244.494 28.9583 243.844 29.1838 243.844 30.0059C243.844 31.3054 247.133 30.7617 247.133 33.2679C247.133 34.9121 245.833 35.5353 244.322 35.5353C243.499 35.5353 242.77 35.4028 242.147 35.0845L242.346 33.7983C242.823 34.2093 243.659 34.3552 244.242 34.3552C244.825 34.3552 245.568 34.0635 245.568 33.3872C245.568 31.9551 242.28 32.5518 242.28 30.0722C242.28 28.4014 243.579 27.7782 244.905 27.7782C245.555 27.7782 246.152 27.871 246.695 28.0434L246.549 29.2766Z" fill="#003893"/>
<path d="M248.328 27.8982H250.741L252.518 33.5868H252.545L254.322 27.8982H256.735V35.4034H255.29V29.2109H255.276L253.248 35.4034H251.815L249.787 29.2109L249.773 29.2375V35.4034H248.328V27.8982Z" fill="#003893"/>
<path d="M258.312 27.8982H262.741V29.0783H259.81V30.9348H262.489V32.1149H259.81V34.21H262.754V35.4034H258.312V27.8982Z" fill="#003893"/>
<path d="M267.275 31.0282C266.838 30.8824 266.506 30.7896 265.989 30.7896C265.605 30.7896 265.14 30.9354 265.14 31.3995C265.14 32.2747 267.647 31.7178 267.647 33.72C267.647 35.0063 266.493 35.5234 265.326 35.5234C264.782 35.5234 264.226 35.4306 263.695 35.2847L263.788 34.1046C264.239 34.33 264.716 34.4759 265.207 34.4759C265.578 34.4759 266.148 34.33 266.148 33.7996C266.148 32.7123 263.642 33.4548 263.642 31.4526C263.642 30.2592 264.69 29.7288 265.817 29.7288C266.493 29.7288 266.931 29.8348 267.381 29.9277L267.289 31.015L267.275 31.0282Z" fill="#003893"/>
<path d="M333.217 31.0282C332.779 30.8824 332.448 30.7896 331.931 30.7896C331.546 30.7896 331.082 30.9354 331.082 31.3995C331.082 32.2747 333.588 31.7178 333.588 33.72C333.588 35.0063 332.434 35.5234 331.268 35.5234C330.724 35.5234 330.167 35.4306 329.637 35.2847L329.729 34.1046C330.18 34.33 330.658 34.4759 331.148 34.4759C331.519 34.4759 332.09 34.33 332.09 33.7996C332.09 32.7123 329.583 33.4548 329.583 31.4526C329.583 30.2592 330.631 29.7288 331.758 29.7288C332.434 29.7288 332.872 29.8348 333.323 29.9277L333.23 31.015L333.217 31.0282Z" fill="#003893"/>
<path d="M296.515 29.2766C296.037 29.0777 295.52 28.9583 294.99 28.9583C294.46 28.9583 293.81 29.1838 293.81 30.0059C293.81 31.3054 297.098 30.7617 297.098 33.2679C297.098 34.9121 295.799 35.5353 294.287 35.5353C293.465 35.5353 293.107 35.4293 292.364 35.2436L292.51 33.8911C293.027 34.1696 293.611 34.3552 294.208 34.3552C294.804 34.3552 295.547 34.0635 295.547 33.3872C295.547 31.9551 292.258 32.5518 292.258 30.0722C292.258 28.4014 293.558 27.7782 294.884 27.7782C295.534 27.7782 296.13 27.871 296.674 28.0434L296.528 29.2766H296.515Z" fill="#003893"/>
<path d="M298.518 30.9214H297.457V29.8739H298.518V28.7733L299.963 28.3092V29.8739H301.236V30.9214H299.963V33.4939C299.963 33.9713 300.096 34.4088 300.639 34.4088C300.891 34.4088 301.143 34.3558 301.289 34.263L301.329 35.4033C301.024 35.4829 300.692 35.5359 300.268 35.5359C299.141 35.5359 298.518 34.8332 298.518 33.7458V30.9347V30.9214Z" fill="#003893"/>
<path d="M302.535 30.1531C303.092 29.9011 303.848 29.7288 304.458 29.7288C306.142 29.7288 306.845 30.4315 306.845 32.0625V32.7653C306.845 33.3222 306.845 33.7466 306.871 34.1576C306.871 34.5819 306.898 34.9665 306.938 35.3908H305.665C305.612 35.0991 305.612 34.7411 305.598 34.5687H305.572C305.24 35.1786 304.524 35.5234 303.861 35.5234C302.88 35.5234 301.925 34.9267 301.925 33.8792C301.925 33.057 302.323 32.5664 302.867 32.3012C303.41 32.036 304.126 31.983 304.723 31.983H305.519C305.519 31.0945 305.121 30.7896 304.272 30.7896C303.662 30.7896 303.052 31.0282 302.562 31.3863L302.522 30.1531H302.535ZM304.219 34.4759C304.657 34.4759 305.002 34.277 305.227 33.9852C305.466 33.6803 305.532 33.2692 305.532 32.8449H304.909C304.272 32.8449 303.304 32.951 303.304 33.7996C303.304 34.277 303.702 34.4759 304.219 34.4759Z" fill="#003893"/>
<path d="M271.93 30.1531C272.487 29.9011 273.243 29.7288 273.853 29.7288C275.537 29.7288 276.24 30.4315 276.24 32.0625V32.7653C276.24 33.3222 276.24 33.7466 276.266 34.1576C276.266 34.5819 276.293 34.9665 276.333 35.3908H275.06C275.007 35.0991 275.007 34.7411 274.993 34.5687H274.967C274.635 35.1786 273.919 35.5234 273.256 35.5234C272.275 35.5234 271.32 34.9267 271.32 33.8792C271.32 33.057 271.718 32.5664 272.262 32.3012C272.805 32.036 273.521 31.983 274.118 31.983H274.914C274.914 31.0945 274.516 30.7896 273.667 30.7896C273.057 30.7896 272.447 31.0282 271.957 31.3863L271.917 30.1531H271.93ZM273.614 34.4759C274.052 34.4759 274.397 34.277 274.622 33.9852C274.861 33.6803 274.927 33.2692 274.927 32.8449H274.304C273.654 32.8449 272.699 32.951 272.699 33.7996C272.699 34.277 273.097 34.4759 273.614 34.4759Z" fill="#003893"/>
<path d="M307.89 29.8613H309.163V31.121H309.19C309.256 30.6038 309.839 29.7419 310.701 29.7419C310.834 29.7419 310.993 29.742 311.139 29.7817V31.1475C311.006 31.1077 310.754 31.0945 310.489 31.1077C309.269 31.174 309.322 32.5663 309.322 33.3619V35.3907H307.877V29.8613H307.89Z" fill="#003893"/>
<path d="M312.916 30.9214H311.855V29.8739H312.916V28.7733L314.361 28.3092V29.8739H315.634V30.9214H314.361V33.4939C314.361 33.9713 314.494 34.4088 315.037 34.4088C315.289 34.4088 315.541 34.3558 315.687 34.263L315.727 35.4033C315.422 35.4829 315.09 35.5359 314.666 35.5359C313.539 35.5359 312.916 34.8332 312.916 33.7458V30.9347V30.9214Z" fill="#003893"/>
<path d="M321.947 35.4039H320.581V34.6481H320.555C320.117 35.1785 319.494 35.5233 318.738 35.5233C317.425 35.5233 316.855 34.5951 316.855 33.3486V29.8612H318.287V32.8182C318.287 33.4945 318.287 34.4094 319.229 34.4094C320.276 34.4094 320.502 33.2823 320.502 32.5663V29.8612H321.947V35.3907V35.4039Z" fill="#003893"/>
<path d="M323.272 29.8614H324.652V30.6437H324.678C324.996 30.1 325.553 29.7288 326.402 29.7288C328.099 29.7288 328.722 31.0813 328.722 32.6062C328.722 34.1311 328.099 35.5234 326.375 35.5234C325.765 35.5234 325.261 35.3776 324.758 34.7543H324.731V37.645H323.286V29.8614H323.272ZM324.718 32.6062C324.718 33.3885 325.023 34.3963 325.978 34.3963C326.932 34.3963 327.197 33.362 327.197 32.6062C327.197 31.8504 326.945 30.8426 326.004 30.8426C325.063 30.8426 324.718 31.8371 324.718 32.6062Z" fill="#003893"/>
<path d="M288.386 35.4029H287.007V34.6206H286.98C286.662 35.151 286.118 35.5355 285.257 35.5355C283.559 35.5355 282.936 34.183 282.936 32.6581C282.936 31.1332 283.559 29.7409 285.283 29.7409C285.893 29.7409 286.397 29.9 286.901 30.51H286.927V27.6193H288.373V35.4029H288.386ZM286.874 32.6316C286.874 31.8625 286.569 30.8812 285.628 30.8812C284.686 30.8812 284.434 31.889 284.434 32.6316C284.434 33.3741 284.686 34.3554 285.601 34.3554C286.516 34.3554 286.861 33.3874 286.861 32.6316" fill="#003893"/>
<path d="M338.868 27.8982H340.565L343.509 35.3901H341.838L341.189 33.6663H338.152L337.502 35.3901H335.938L338.855 27.8982H338.868ZM339.69 29.3966H339.664L338.576 32.4862H340.764L339.677 29.3966H339.69Z" fill="#003893"/>
<path d="M349.262 29.8613V34.8603C349.262 36.3587 348.666 37.7776 346.345 37.7776C345.775 37.7776 345.125 37.698 344.436 37.4063L344.555 36.1863C344.993 36.425 345.709 36.677 346.173 36.677C347.764 36.677 347.83 35.4836 347.83 34.5288H347.804C347.539 35.0062 346.889 35.404 346.08 35.404C344.449 35.404 343.826 34.0913 343.826 32.6061C343.826 31.2801 344.515 29.7419 346.173 29.7419C346.902 29.7419 347.472 29.9939 347.87 30.6171H347.897V29.8613H349.276H349.262ZM347.817 32.5663C347.817 31.6249 347.446 30.8425 346.61 30.8425C345.629 30.8425 345.324 31.7442 345.324 32.5929C345.324 33.3487 345.722 34.2636 346.544 34.2636C347.446 34.2636 347.817 33.4813 347.817 32.5531" fill="#003893"/>
<path d="M355.016 35.0858C354.486 35.3775 353.889 35.5233 353.12 35.5233C351.29 35.5233 350.229 34.4758 350.229 32.6592C350.229 31.0547 351.078 29.7419 352.802 29.7419C354.857 29.7419 355.441 31.1475 355.441 33.0835H351.622C351.688 33.9719 352.311 34.4758 353.2 34.4758C353.903 34.4758 354.499 34.2239 355.043 33.9189V35.0858H355.016ZM354.048 32.089C354.009 31.3862 353.69 30.7895 352.882 30.7895C352.073 30.7895 351.662 31.3464 351.609 32.089H354.062H354.048Z" fill="#003893"/>
<path d="M356.397 29.8613H357.763V30.6171H357.789C358.24 29.9806 358.85 29.7419 359.606 29.7419C360.919 29.7419 361.489 30.6701 361.489 31.9166V35.404H360.057V32.447C360.057 31.7707 360.057 30.8558 359.115 30.8558C358.068 30.8558 357.842 31.9829 357.842 32.6989V35.404H356.41V29.8746L356.397 29.8613Z" fill="#003893"/>
<path d="M277.155 29.8613H278.521V30.6171H278.548C278.998 29.9806 279.608 29.7419 280.364 29.7419C281.677 29.7419 282.247 30.6701 282.247 31.9166V35.404H280.815V32.447C280.815 31.7707 280.815 30.8558 279.874 30.8558C278.826 30.8558 278.601 31.9829 278.601 32.6989V35.404H277.155V29.8746V29.8613Z" fill="#003893"/>
<path d="M366.089 31.0535C365.837 30.9342 365.558 30.8546 365.107 30.8546C364.219 30.8546 363.649 31.5574 363.649 32.6049C363.649 33.6525 364.139 34.4083 365.147 34.4083C365.558 34.4083 366.009 34.2625 366.248 34.1564L366.314 35.3498C365.89 35.4824 365.465 35.5354 364.869 35.5354C363.052 35.5354 362.137 34.3022 362.137 32.6182C362.137 31.0137 363.079 29.754 364.816 29.754C365.399 29.754 365.81 29.8203 366.208 29.9397L366.075 31.08L366.089 31.0535Z" fill="#003893"/>
<path d="M369.71 33.9055H369.736L371.062 29.8612H372.521L370.452 35.3509C369.988 36.5708 369.657 37.7775 368.158 37.7775C367.814 37.7775 367.469 37.7244 367.137 37.6316L367.23 36.5708C367.416 36.6371 367.615 36.6636 367.973 36.6636C368.556 36.6636 368.901 36.2658 368.901 35.6691L366.779 29.8612H368.371L369.697 33.9055H369.71Z" fill="#003893"/>
<path d="M153.716 36.0273V19.1074L143.718 35.5897H136.862L126.851 19.1074V36.0273H119.107V6.8949H127.288L140.495 28.3895L153.716 6.8949H161.659V36.0273H153.716Z" fill="#003893"/>
<path d="M105.637 17.6484H90.0963C89.4466 17.6484 88.8764 17.423 88.3858 16.9721C87.9747 16.508 87.736 16.0042 87.7095 15.4472C87.736 14.771 87.9614 14.2406 88.3858 13.8295C88.8233 13.3919 89.3538 13.1532 89.977 13.1532H113.699V6.88123H89.1284C86.2377 6.88123 83.9834 7.71661 82.2994 9.40064C80.5491 11.1245 79.6606 13.1798 79.6606 15.6064C79.6606 18.033 80.5358 20.1811 82.2994 21.9579C84.0497 23.7348 86.3437 24.61 89.1284 24.61H105.452C106.168 24.61 106.751 24.8619 107.228 25.3658C107.706 25.8431 107.958 26.4531 107.958 27.1426C107.958 27.8322 107.706 28.4421 107.202 28.946C106.698 29.4499 106.075 29.7018 105.332 29.7018H81.2916V36.0004H105.637C108.501 36.0004 110.835 35.0722 112.652 33.229C114.455 31.3991 115.357 29.2112 115.357 26.6785C115.357 24.1459 114.455 22.1038 112.652 20.2872C110.901 18.5103 108.568 17.6352 105.637 17.6352" fill="#003893"/>
<path d="M198.693 13.1802V6.8949H166.538V36.0273H198.693V29.7288H174.454V24.6104H198.693V18.3118H174.467V13.1802H198.693Z" fill="#003893"/>
<path d="M38.1822 32.0479C40.4762 35.8801 46.7217 41.4759 55.1419 41.94C59.889 42.2052 64.3576 40.9985 67.9511 38.426C73.5203 34.7 76.8221 28.4412 76.4508 21.7051C76.0795 15.1281 70.2981 9.38647 64.4902 9.61189C61.0426 9.74449 58.1254 11.4683 56.5209 14.2264C58.9343 14.5579 62.3023 16.0165 63.2968 19.6763C64.3046 23.4024 61.5332 27.2743 58.3906 28.3749C58.3376 28.481 58.3906 28.6401 58.563 28.6136C63.1377 28.0434 68.3356 24.9008 67.2616 16.6265C68.4948 20.9758 67.6461 26.6511 64.3178 30.3904C62.1034 32.8701 58.6425 34.5939 53.9485 34.3154C53.67 34.3022 53.5507 34.6867 53.8954 34.7663C58.7354 35.8138 63.0581 34.3552 66.1212 32.1938C69.6617 29.7009 71.6507 25.577 71.9292 21.3603C72.4861 27.7649 69.8208 33.5994 62.7929 37.1133C54.8634 41.0781 43.6056 37.763 38.6861 31.7032C38.3016 31.2258 37.9038 31.491 38.2087 32.0082" fill="#003893"/>
<path d="M74.3297 10.8726C72.0489 7.04049 65.7902 1.44473 57.37 0.980628C52.6229 0.715426 48.1543 1.9221 44.5608 4.48129C38.9915 8.20737 35.6898 14.4661 36.061 21.2023C36.4456 27.9649 42.1607 33.5341 48.0217 33.2954C51.4693 33.1628 54.3865 31.439 55.991 28.6809C53.5776 28.3362 50.2096 26.8908 49.2151 23.231C48.2073 19.505 50.9787 15.633 54.1213 14.5192C54.1743 14.4131 54.1213 14.254 53.9489 14.2805C49.3874 14.8507 44.1762 17.9933 45.2503 26.2676C44.0171 21.9183 44.8658 16.243 48.194 12.5036C50.4085 10.024 53.8693 8.30019 58.5634 8.57865C58.8419 8.59191 58.9612 8.20737 58.6165 8.14107C53.7765 7.09353 49.4537 8.55213 46.3907 10.7003C42.8502 13.1932 40.8612 17.317 40.5695 21.5338C40.0258 15.1291 42.6778 9.2947 49.7189 5.78078C57.6485 1.81602 68.9063 5.14429 73.8258 11.1909C74.2103 11.6683 74.6081 11.4031 74.3031 10.8859" fill="#E50020"/>
<path d="M18.7674 20.566L37.8355 36.0273H26.5511L8.74283 22.144V36.0273H0.760254V6.8949H8.74283V19.2931L25.1323 6.8949H36.0719L18.7674 20.566Z" fill="#003893"/>
<path d="M348.243 10.8331H345.816V14.6123H340.831V16.0443H356.239V14.6123H348.243V10.8331Z" fill="#003893"/>
<path d="M371.234 10.8601V7.00146H368.808V18.4847H371.234V12.2922H373.701V10.8601H371.234Z" fill="#003893"/>
<path d="M275.83 8.71041H280.949V9.70492C280.949 11.9459 280.272 15.367 275.711 17.0377V18.6422C282.089 16.9184 283.654 12.5161 283.654 10.1558V7.27832H275.844V8.71041H275.83Z" fill="#003893"/>
<path d="M366.343 15.6985V14.2664H362.047C361.172 14.2664 360.456 13.5503 360.456 12.6752V8.71041H366.343V7.27832H358.029V12.6221C358.029 14.3194 359.408 15.6985 361.092 15.6985H366.33H366.343Z" fill="#003893"/>
<path d="M351.903 11.7072C351.903 12.3569 351.704 12.9536 351.359 13.4443H353.786C354.131 12.9536 354.33 12.3437 354.33 11.7072V7.27832H342.303V8.71041H351.903V11.7072Z" fill="#003893"/>
<path d="M362.045 20.5386V17.9794H359.618V20.4855C359.618 22.1828 360.997 23.5486 362.681 23.5486H371.552V22.1165H363.623C362.748 22.1165 362.032 21.4005 362.032 20.5253" fill="#003893"/>
<path d="M348.533 16.5208C345.682 16.5208 343.361 18.2843 343.361 20.459C343.361 22.6336 345.682 24.3972 348.533 24.3972C351.384 24.3972 353.704 22.6336 353.704 20.459C353.704 18.2843 351.384 16.5208 348.533 16.5208ZM348.533 22.9784C347.021 22.9784 345.788 21.8513 345.788 20.459C345.788 19.0667 347.021 17.9396 348.533 17.9396C350.044 17.9396 351.278 19.0667 351.278 20.459C351.278 21.8513 350.044 22.9784 348.533 22.9784Z" fill="#003893"/>
<path d="M234.882 16.1768H232.455V20.4465H225.109V21.8653H242.215V20.4465H234.882V16.1768Z" fill="#003893"/>
<path d="M208.587 15.6197H215.535V16.6407C213.268 17.0518 211.584 18.6165 211.584 20.4729C211.584 22.6476 213.904 24.4111 216.755 24.4111C219.606 24.4111 221.927 22.6476 221.927 20.4729C221.927 18.6165 220.243 17.0651 217.975 16.6407V15.6197H224.923V14.1876H208.613V15.6197H208.587ZM219.487 20.4596C219.487 21.8519 218.254 22.9658 216.742 22.9658C215.23 22.9658 213.997 21.8387 213.997 20.4596C213.997 19.0806 215.23 17.9402 216.742 17.9402C218.254 17.9402 219.487 19.0673 219.487 20.4596Z" fill="#003893"/>
<path d="M339.928 14.6122H324.52V16.0443H339.928V14.6122Z" fill="#003893"/>
<path d="M332.21 16.5208C329.359 16.5208 327.038 18.2843 327.038 20.459C327.038 22.6336 329.359 24.3972 332.21 24.3972C335.06 24.3972 337.381 22.6336 337.381 20.459C337.381 18.2843 335.06 16.5208 332.21 16.5208ZM332.21 22.9784C330.698 22.9784 329.465 21.8513 329.465 20.459C329.465 19.0667 330.698 17.9396 332.21 17.9396C333.721 17.9396 334.954 19.0667 334.954 20.459C334.954 21.8513 333.721 22.9784 332.21 22.9784Z" fill="#003893"/>
<path d="M327.505 10.7532C327.505 12.6228 329.613 14.1345 332.212 14.1345C334.811 14.1345 336.919 12.6228 336.919 10.7532C336.919 10.0238 336.588 9.34758 336.044 8.79066H338.073V7.35857H333.432V6.37732H331.005V7.35857H326.046V8.79066H328.38C327.836 9.34758 327.505 10.0238 327.505 10.7532ZM332.212 12.7024C330.952 12.7024 329.931 11.7874 329.931 10.6603C329.931 9.53322 330.952 8.61828 332.212 8.61828C333.472 8.61828 334.493 9.53322 334.493 10.6603C334.493 11.7874 333.472 12.7024 332.212 12.7024Z" fill="#003893"/>
<path d="M322.055 7.00146H319.628V18.4847H322.055V7.00146Z" fill="#003893"/>
<path d="M303.212 9.95706H300.441C299.844 8.15369 298.081 6.84094 295.985 6.84094C293.4 6.84094 291.318 8.82995 291.318 11.2831C291.318 13.7362 293.413 15.7385 295.985 15.7385C298.558 15.7385 300.6 13.8025 300.653 11.3892H303.225V16.0567H305.652V7.01332H303.225V9.95706H303.212ZM295.985 14.2931C294.739 14.2931 293.731 12.9406 293.731 11.2698C293.731 9.59904 294.739 8.25977 295.985 8.25977C297.232 8.25977 298.24 9.6123 298.24 11.2698C298.24 12.9273 297.232 14.2931 295.985 14.2931Z" fill="#003893"/>
<path d="M312.864 20.5386V17.9794H310.437V20.4855C310.437 22.1828 311.816 23.5486 313.5 23.5486H322.371V22.1165H314.455C313.58 22.1165 312.864 21.4005 312.864 20.5253" fill="#003893"/>
<path d="M247.491 20.5386V17.9794H245.064V20.4855C245.064 22.1828 246.443 23.5486 248.128 23.5486H256.999V22.1165H249.069C248.194 22.1165 247.478 21.4005 247.478 20.5253" fill="#003893"/>
<path d="M303.21 18.841H296.805V16.9846H294.378V20.4853C294.378 22.1826 295.757 23.5484 297.441 23.5484H305.636V16.9846H303.21V18.841ZM298.396 22.1163C297.521 22.1163 296.805 21.4002 296.805 20.5251V20.2599H303.21V22.1163H298.396Z" fill="#003893"/>
<path d="M312.917 12.3967C313.739 13.9349 315.238 15.4863 317.929 16.335V14.7437C314.548 13.1393 314.217 10.3812 314.217 9.09495V8.71041H317.492V7.27832H308.342V8.71041H311.604V9.09495C311.604 10.3812 311.273 13.1393 307.892 14.7437V16.335C310.583 15.4996 312.082 13.9349 312.904 12.3967" fill="#003893"/>
<path d="M216.739 10.4093C217.774 11.6027 219.657 12.9552 223.025 13.5387V11.9342C219.524 11.2447 218.331 9.40154 217.933 8.43356H222.746V7.00146H210.719V8.43356H215.533C215.135 9.40154 213.942 11.2447 210.441 11.9342V13.5387C213.809 12.9552 215.679 11.616 216.726 10.4093" fill="#003893"/>
<path d="M289.103 7.00146H286.677V23.55H289.103V7.00146Z" fill="#003893"/>
<path d="M249.481 16.071V11.7615H251.204V18.4976H253.366V7.0144H251.204V10.3427H249.481V7.29286H247.319V10.3427H244.773V7.29286H242.612V14.0555C242.612 15.1694 243.513 16.071 244.627 16.071H249.481ZM245.821 14.639C245.237 14.639 244.773 14.1748 244.773 13.5914V11.7615H247.319V14.639H245.821Z" fill="#003893"/>
<path d="M256.681 7.00146H254.52V18.4847H256.681V7.00146Z" fill="#003893"/>
<path d="M271.015 10.9795H267.925V12.4116H271.015V23.5633H273.441V7.00146H271.015V10.9795Z" fill="#003893"/>
<path d="M265.3 11.0977V9.67883H268.575V8.24674H265.3V6.80139H262.781V8.24674H259.413V9.67883H262.781V11.0977C262.781 12.1452 262.396 15.5133 258.975 17.0912V18.6426C261.455 17.9001 263.086 16.4945 264.04 14.9033C264.995 16.4945 266.626 17.9001 269.106 18.6426V17.0912C265.685 15.5133 265.3 12.1452 265.3 11.0977Z" fill="#003893"/>
<path d="M233.659 12.0268C234.959 14.2678 237.319 15.9783 240.303 16.7872V15.0236C236.842 13.7108 234.946 11.2843 234.946 7.95597V7.29297H232.36V7.95597C232.36 11.271 230.464 13.6976 227.016 15.0236V16.7872C230 15.9783 232.36 14.2678 233.659 12.0268Z" fill="#003893"/>
</svg>
