<svg width="235" height="53" viewBox="0 0 235 53" fill="none" xmlns="http://www.w3.org/2000/svg">
<path d="M40.8278 25.2604C36.2266 22.1311 30.3391 23.4173 27.2627 28.1114C24.677 32.0363 20.7918 32.527 19.2802 32.527C14.3607 32.527 11.0059 29.0661 9.99811 25.4859C9.99811 25.4859 9.98485 25.4196 9.97159 25.3798C9.97159 25.34 9.94507 25.3002 9.94507 25.2604C9.54727 23.7753 9.45444 23.0593 9.45444 21.4681C9.45444 12.9153 18.2326 3.38132 30.8828 3.38132C43.5329 3.38132 51.237 13.2336 53.1464 18.71C53.1199 18.6171 53.0801 18.5243 53.0536 18.4182C49.3806 7.7041 39.2234 0 27.2627 0C12.2125 0 0 12.1993 0 27.2627C0 40.7217 9.70639 52.2447 23.1654 52.2447C33.9061 52.2447 41.1195 46.2246 44.4346 37.9238C46.2512 33.3889 44.965 28.0451 40.8411 25.2472L40.8278 25.2604Z" fill="#003964"/>
<path d="M53.3038 19.2531C51.7126 13.9093 44.2472 3.39404 30.8678 3.39404C18.2309 3.39404 9.43945 12.9148 9.43945 21.4808C9.43945 23.072 9.53227 23.7881 9.93008 25.2732C9.7577 24.6234 9.67813 23.9604 9.67813 23.3239C9.67813 14.4132 18.6022 8.23397 27.7649 8.23397C40.1764 8.23397 50.2408 18.2984 50.2408 30.7098C50.2408 40.4427 44.645 48.8629 36.5033 52.9072C46.992 49.1148 54.484 39.0637 54.484 27.2755C54.484 24.4776 54.1127 22.0245 53.2906 19.2531H53.3038Z" fill="#ED1A3B"/>
<path d="M77.8127 38.9452V47.1134H76.5V40.5364L74.3651 47.1134H73.0922L70.9705 40.5364V47.1134H69.6445V38.9452H71.6601L73.7286 45.2968L75.7972 38.9452H77.8127Z" fill="#58595B"/>
<path d="M81.0469 39.4083C81.0469 39.6338 80.9673 39.8327 80.795 39.9918C80.6226 40.1642 80.4237 40.2437 80.1983 40.2437C79.9596 40.2437 79.7607 40.1642 79.6016 39.9918C79.4292 39.8194 79.3496 39.6338 79.3496 39.4083C79.3496 39.1829 79.4292 38.9707 79.6016 38.8116C79.7739 38.6525 79.9596 38.5597 80.1983 38.5597C80.4369 38.5597 80.6358 38.6392 80.795 38.8116C80.9673 38.984 81.0469 39.1829 81.0469 39.4083ZM79.5353 47.1124V41.2515H80.8745V47.1124H79.5353Z" fill="#58595B"/>
<path d="M83.9222 44.1696V47.1266H82.5962V41.2656H83.8824V42.048C84.0283 41.7828 84.2537 41.5573 84.5719 41.3717C84.8637 41.1993 85.1819 41.1198 85.5267 41.1198C86.2162 41.1198 86.7599 41.3584 87.1974 41.8225C87.6085 42.2999 87.8207 42.9231 87.8207 43.7187V47.1266H86.4947V44.0502C86.4947 43.427 86.3886 42.9629 86.1897 42.6579C85.9775 42.3662 85.6593 42.2071 85.2482 42.2071C85.0361 42.2071 84.8106 42.2734 84.6117 42.4192C84.3996 42.5651 84.2404 42.764 84.1344 43.0027C84.0018 43.2944 83.9487 43.6789 83.9487 44.1563L83.9222 44.1696Z" fill="#58595B"/>
<path d="M90.9903 39.4083C90.9903 39.6338 90.9107 39.8327 90.7383 39.9918C90.5659 40.1642 90.367 40.2437 90.1416 40.2437C89.9029 40.2437 89.704 40.1642 89.5449 39.9918C89.3725 39.8194 89.293 39.6338 89.293 39.4083C89.293 39.1829 89.3725 38.9707 89.5449 38.8116C89.7173 38.6392 89.9029 38.5597 90.1416 38.5597C90.3803 38.5597 90.5792 38.6392 90.7383 38.8116C90.9107 38.984 90.9903 39.1829 90.9903 39.4083ZM89.4786 47.1124V41.2515H90.8179V47.1124H89.4786Z" fill="#58595B"/>
<path d="M91.9971 46.026L92.8325 45.1773C93.0579 45.4956 93.3098 45.7475 93.6015 45.9199C93.8667 46.0923 94.1717 46.1718 94.4767 46.1718C94.7817 46.1718 95.0336 46.1055 95.2458 45.9862C95.4314 45.8669 95.5508 45.7077 95.5508 45.5088C95.5508 45.3232 95.458 45.1508 95.2591 45.0315C95.0602 44.9254 94.8215 44.8193 94.543 44.7132C94.2248 44.6204 93.8933 44.5011 93.5618 44.3685C93.1109 44.2093 92.7794 43.9972 92.5805 43.732C92.3684 43.48 92.2623 43.1883 92.2623 42.8568C92.2623 42.3795 92.4877 41.9684 92.9518 41.6236C93.3894 41.2921 93.9198 41.1198 94.543 41.1198C95.1662 41.1198 95.7364 41.2789 96.1475 41.5839C96.3596 41.7562 96.532 41.9551 96.6514 42.1938L95.8292 42.9894C95.7099 42.8038 95.5906 42.6579 95.4447 42.5386C95.1795 42.3264 94.8613 42.2071 94.4767 42.2071C94.238 42.2071 94.0391 42.2734 93.88 42.3795C93.7076 42.4988 93.6281 42.6314 93.6281 42.7905C93.6281 42.9629 93.7209 43.0955 93.9198 43.2148C94.1054 43.3342 94.3706 43.4535 94.7419 43.5596C94.8745 43.6126 95.0336 43.6524 95.1928 43.7055C95.7629 43.8911 96.1873 44.143 96.4922 44.4215C96.784 44.7265 96.9298 45.0845 96.9298 45.4823C96.9298 45.9729 96.6911 46.3973 96.227 46.742C95.7497 47.1 95.153 47.2857 94.4369 47.2857C93.8137 47.2857 93.27 47.1398 92.8192 46.8481C92.5142 46.6625 92.2358 46.4105 91.9971 46.0392V46.026Z" fill="#58595B"/>
<path d="M99.7935 39.356V41.2521H101.066V42.313H99.7935V45.2965C99.7935 45.5882 99.8598 45.7871 99.9924 45.8799C100.125 45.986 100.311 46.039 100.563 46.039H101.053V47.1131H100.244C99.6078 47.1131 99.157 46.9672 98.8653 46.6755C98.5735 46.3971 98.4277 45.9727 98.4277 45.4291V42.313H97.4199V41.2521H98.4277V39.356H99.767H99.7935Z" fill="#58595B"/>
<path d="M102.275 47.1125V41.2516H103.535V42.1268C103.72 41.835 103.959 41.6229 104.237 41.4505C104.569 41.2649 104.967 41.1455 105.431 41.1455H105.524V42.3389H105.378C104.821 42.3389 104.383 42.5113 104.052 42.8428C103.734 43.1743 103.601 43.6782 103.601 44.381V47.1125H102.275Z" fill="#58595B"/>
<path d="M108.415 46.8876L106.107 41.2521H107.486L109.078 45.2566L110.656 41.2521H112.021L108.759 49.3938H107.394L108.401 46.8876H108.415Z" fill="#58595B"/>
<path d="M118.758 47.2591C117.896 47.2591 117.167 46.9674 116.557 46.3707C115.947 45.7872 115.642 45.0446 115.642 44.1827C115.642 43.3208 115.947 42.5915 116.557 41.9816C117.153 41.3981 117.883 41.0931 118.758 41.0931C119.633 41.0931 120.349 41.3981 120.959 41.9816C121.556 42.5783 121.861 43.3076 121.861 44.1827C121.861 45.0579 121.556 45.774 120.959 46.3707C120.349 46.9674 119.62 47.2591 118.758 47.2591ZM118.758 46.1585C119.235 46.1585 119.659 45.9861 120.004 45.5883C120.336 45.2303 120.521 44.7662 120.521 44.1827C120.521 43.5993 120.336 43.1485 120.004 42.7639C119.659 42.3926 119.235 42.207 118.758 42.207C118.28 42.207 117.856 42.3926 117.525 42.7639C117.167 43.1485 116.994 43.6126 116.994 44.1827C116.994 44.7529 117.167 45.2303 117.525 45.5883C117.856 45.9729 118.28 46.1585 118.758 46.1585Z" fill="#58595B"/>
<path d="M123.411 40.0843C123.411 39.5274 123.571 39.1163 123.876 38.8246C124.181 38.5461 124.645 38.4003 125.281 38.4003H125.931V39.4611H125.533C125.281 39.4611 125.082 39.5274 124.963 39.6202C124.817 39.7263 124.764 39.9252 124.764 40.2036V41.2379H125.944V42.2987H124.764V47.0989H123.425V42.2987H122.417V41.2379H123.425V40.071L123.411 40.0843Z" fill="#58595B"/>
<path d="M130.319 45.4558L131.221 44.5409C131.459 45.058 131.778 45.4426 132.149 45.6812C132.533 45.9465 132.944 46.0791 133.342 46.0791C133.78 46.0791 134.138 45.973 134.443 45.7476C134.748 45.5354 134.894 45.2304 134.894 44.8724C134.894 44.5541 134.735 44.3022 134.443 44.09C134.125 43.9044 133.793 43.732 133.435 43.5862C133.077 43.4536 132.692 43.3077 132.308 43.1486C131.685 42.9232 131.234 42.6182 130.982 42.2469C130.703 41.8889 130.571 41.5043 130.571 41.0933C130.571 40.47 130.836 39.9131 131.38 39.4623C131.91 39.0247 132.573 38.786 133.355 38.786C134.138 38.786 134.841 38.9982 135.358 39.4225C135.623 39.6347 135.795 39.8601 135.915 40.112L135.093 40.9739C135.026 40.8281 134.894 40.6689 134.695 40.4966C134.297 40.1385 133.833 39.9529 133.276 39.9529C132.931 39.9529 132.626 40.0457 132.374 40.2446C132.109 40.4435 131.976 40.6955 131.976 41.0137C131.976 41.5043 132.507 41.9419 133.568 42.2999C133.753 42.3662 133.952 42.4458 134.164 42.5121C134.867 42.7906 135.411 43.1088 135.769 43.4668C136.114 43.8514 136.299 44.3022 136.299 44.8459C136.299 45.4956 136.021 46.0525 135.477 46.5299C134.92 47.0073 134.217 47.2459 133.355 47.2459C132.547 47.2459 131.897 47.0603 131.38 46.7023C130.876 46.3575 130.518 45.9332 130.306 45.4426L130.319 45.4558Z" fill="#58595B"/>
<path d="M145.676 38.9452V47.1134H144.363V40.5364L142.228 47.1134H140.955L138.833 40.5364V47.1134H137.507V38.9452H139.523L141.591 45.2968L143.66 38.9452H145.676Z" fill="#58595B"/>
<path d="M152.783 47.1134H147.413V38.9452H152.77V40.0856H148.805V42.4459H152.677V43.5464H148.805V45.973H152.796V47.1134H152.783Z" fill="#58595B"/>
<path d="M153.686 46.026L154.521 45.1773C154.747 45.4956 154.999 45.7475 155.291 45.9199C155.556 46.0923 155.861 46.1718 156.166 46.1718C156.471 46.1718 156.723 46.1055 156.935 45.9862C157.12 45.8669 157.24 45.7077 157.24 45.5088C157.24 45.3232 157.147 45.1508 156.948 45.0315C156.749 44.9254 156.51 44.8193 156.232 44.7132C155.914 44.6204 155.582 44.5011 155.251 44.3685C154.8 44.2093 154.468 43.9972 154.269 43.732C154.057 43.48 153.951 43.1883 153.951 42.8568C153.951 42.3795 154.177 41.9684 154.641 41.6236C155.078 41.2921 155.609 41.1198 156.232 41.1198C156.855 41.1198 157.425 41.2789 157.836 41.5839C158.049 41.7562 158.221 41.9551 158.34 42.1938L157.518 42.9894C157.399 42.8038 157.28 42.6579 157.134 42.5386C156.868 42.3264 156.55 42.2071 156.166 42.2071C155.927 42.2071 155.728 42.2734 155.569 42.3795C155.397 42.4988 155.317 42.6314 155.317 42.7905C155.317 42.9629 155.41 43.0955 155.609 43.2148C155.794 43.3342 156.06 43.4535 156.431 43.5596C156.563 43.6126 156.723 43.6524 156.882 43.7055C157.439 43.8911 157.876 44.143 158.181 44.4215C158.473 44.7265 158.632 45.0845 158.632 45.4823C158.632 45.9729 158.393 46.3973 157.929 46.742C157.452 47.1 156.868 47.2857 156.139 47.2857C155.516 47.2857 154.972 47.1398 154.521 46.8481C154.216 46.6625 153.938 46.4105 153.713 46.0392L153.686 46.026Z" fill="#58595B"/>
<path d="M165.778 43.3208H167.171C167.171 42.9496 167.011 42.6578 166.72 42.4722C166.415 42.2865 165.977 42.1805 165.42 42.1805H165.38C164.85 42.1805 164.293 42.3131 163.683 42.5517L163.352 41.5042C163.962 41.239 164.651 41.1064 165.394 41.0931H165.42C166.402 41.0931 167.157 41.2788 167.688 41.6633C168.218 42.0479 168.483 42.6578 168.483 43.48V47.1132H167.21V46.4635C166.958 46.7154 166.653 46.9011 166.295 47.0337C165.924 47.1795 165.553 47.2458 165.182 47.2458C164.492 47.2458 163.922 47.0602 163.484 46.6756C163.033 46.3176 162.821 45.8668 162.821 45.3098C162.821 44.7131 163.086 44.2225 163.643 43.8247C164.134 43.4932 164.85 43.3076 165.765 43.3076L165.778 43.3208ZM165.42 46.1983C165.752 46.1983 166.11 46.1187 166.441 45.9463C166.773 45.774 167.011 45.5883 167.171 45.3629V44.3684H165.977C165.301 44.3684 164.837 44.4612 164.572 44.6336C164.306 44.8192 164.174 45.0712 164.174 45.3231C164.174 45.5751 164.28 45.7872 164.505 45.9463C164.717 46.1187 165.022 46.1983 165.407 46.1983H165.42Z" fill="#58595B"/>
<path d="M171.451 44.1696V47.1266H170.125V41.2656H171.412V42.048C171.558 41.7828 171.783 41.5573 172.101 41.3717C172.393 41.1993 172.711 41.1198 173.056 41.1198C173.746 41.1198 174.289 41.3584 174.727 41.8225C175.138 42.2999 175.35 42.9231 175.35 43.7187V47.1266H174.024V44.0502C174.024 43.427 173.918 42.9629 173.719 42.6579C173.507 42.3662 173.189 42.2071 172.778 42.2071C172.565 42.2071 172.34 42.2734 172.141 42.4192C171.929 42.5651 171.77 42.764 171.664 43.0027C171.531 43.2944 171.478 43.6789 171.478 44.1563L171.451 44.1696Z" fill="#58595B"/>
<path d="M179.448 41.1053C180.137 41.1053 180.747 41.397 181.251 41.9407V38.4003H182.577V47.1121H181.291V46.3696C180.787 46.9663 180.177 47.258 179.448 47.258C178.586 47.258 177.896 46.953 177.366 46.3298C176.822 45.7331 176.557 45.0171 176.557 44.1817C176.557 43.3463 176.822 42.6302 177.366 42.007C177.896 41.4103 178.573 41.0921 179.448 41.0921V41.1053ZM181.238 44.5662C181.264 44.3143 181.264 44.0623 181.238 43.8104C181.185 43.3728 181.026 43.0015 180.747 42.7098C180.429 42.3916 180.045 42.2192 179.58 42.2192C179.063 42.2192 178.652 42.4048 178.374 42.7761C178.056 43.1606 177.923 43.6247 177.923 44.1949C177.923 44.7651 178.069 45.2425 178.374 45.6005C178.665 45.985 179.063 46.1707 179.58 46.1707C180.031 46.1707 180.429 46.0116 180.747 45.6801C181.026 45.3883 181.185 45.0171 181.238 44.5795V44.5662Z" fill="#58595B"/>
<path d="M187.42 45.4558L188.322 44.5409C188.56 45.058 188.879 45.4426 189.25 45.6812C189.634 45.9465 190.046 46.0791 190.443 46.0791C190.881 46.0791 191.239 45.973 191.544 45.7476C191.849 45.5354 191.995 45.2304 191.995 44.8724C191.995 44.5541 191.836 44.3022 191.544 44.09C191.239 43.9044 190.894 43.732 190.536 43.5862C190.178 43.4536 189.794 43.3077 189.409 43.1486C188.786 42.9232 188.335 42.6182 188.083 42.2469C187.805 41.8889 187.672 41.5043 187.672 41.0933C187.672 40.47 187.937 39.9131 188.481 39.4623C189.011 39.0247 189.674 38.786 190.457 38.786C191.239 38.786 191.942 38.9982 192.459 39.4225C192.724 39.6347 192.91 39.8601 193.016 40.112L192.194 40.9739C192.127 40.8281 191.995 40.6689 191.796 40.4966C191.398 40.1385 190.934 39.9529 190.377 39.9529C190.032 39.9529 189.727 40.0457 189.475 40.2446C189.21 40.4435 189.078 40.6955 189.078 41.0137C189.078 41.5043 189.608 41.9419 190.669 42.2999C190.854 42.3662 191.053 42.4458 191.265 42.5121C191.968 42.7906 192.512 43.1088 192.87 43.4668C193.215 43.8514 193.4 44.3022 193.4 44.8459C193.4 45.4956 193.122 46.0525 192.578 46.5299C192.021 47.0073 191.318 47.2459 190.457 47.2459C189.648 47.2459 188.998 47.0603 188.481 46.7023C187.977 46.3575 187.619 45.9332 187.407 45.4426L187.42 45.4558Z" fill="#58595B"/>
<path d="M196.063 39.356V41.2521H197.335V42.313H196.063V45.2965C196.063 45.5882 196.129 45.7871 196.261 45.8799C196.394 45.986 196.58 46.039 196.832 46.039H197.322V47.1131H196.513C195.877 47.1131 195.426 46.9672 195.134 46.6755C194.843 46.3971 194.697 45.9727 194.697 45.4291V42.313H193.689V41.2521H194.697V39.356H196.036H196.063Z" fill="#58595B"/>
<path d="M201.074 43.3208H202.466C202.466 42.9496 202.307 42.6578 202.028 42.4722C201.71 42.2865 201.286 42.1805 200.729 42.1805H200.689C200.159 42.1805 199.602 42.3131 198.992 42.5517L198.66 41.5042C199.27 41.239 199.96 41.1064 200.702 41.0931H200.729C201.71 41.0931 202.466 41.2788 202.996 41.6633C203.527 42.0479 203.792 42.6578 203.792 43.48V47.1132H202.519V46.4635C202.267 46.7154 201.962 46.9011 201.604 47.0337C201.233 47.1795 200.861 47.2458 200.49 47.2458C199.801 47.2458 199.23 47.0602 198.793 46.6756C198.342 46.3176 198.13 45.8668 198.13 45.3098C198.13 44.7131 198.395 44.2225 198.952 43.8247C199.443 43.4932 200.145 43.3076 201.074 43.3076V43.3208ZM200.716 46.1983C201.047 46.1983 201.405 46.1187 201.737 45.9463C202.068 45.774 202.307 45.5883 202.466 45.3629V44.3684H201.273C200.596 44.3684 200.132 44.4612 199.867 44.6336C199.602 44.8192 199.469 45.0712 199.469 45.3231C199.469 45.5751 199.575 45.7872 199.801 45.9463C200.013 46.1187 200.318 46.1983 200.702 46.1983H200.716Z" fill="#58595B"/>
<path d="M205.423 47.1125V41.2516H206.683V42.1268C206.868 41.835 207.107 41.6229 207.385 41.4505C207.717 41.2649 208.115 41.1455 208.579 41.1455H208.672V42.3389H208.526C207.969 42.3389 207.531 42.5113 207.2 42.8428C206.881 43.1743 206.749 43.6782 206.749 44.381V47.1125H205.423Z" fill="#58595B"/>
<path d="M211.816 39.356V41.2521H213.089V42.313H211.816V45.2965C211.816 45.5882 211.883 45.7871 212.015 45.8799C212.148 45.986 212.334 46.039 212.586 46.039H213.076V47.1131H212.267C211.631 47.1131 211.18 46.9672 210.888 46.6755C210.596 46.3971 210.451 45.9727 210.451 45.4291V42.313H209.443V41.2521H210.451V39.356H211.79H211.816Z" fill="#58595B"/>
<path d="M218.182 44.196V41.239H219.508V47.1H218.222V46.3176C218.05 46.6094 217.837 46.8348 217.572 46.9806C217.254 47.1663 216.909 47.2458 216.578 47.2458C215.888 47.2458 215.331 47.0204 214.92 46.543C214.483 46.0789 214.284 45.4425 214.284 44.6469V41.239H215.61V44.3154C215.61 44.9386 215.703 45.4027 215.915 45.6944C216.1 45.9994 216.419 46.1453 216.856 46.1453C217.068 46.1453 217.28 46.0789 217.493 45.9331C217.692 45.7872 217.851 45.6016 217.97 45.3496C218.089 45.0579 218.169 44.6734 218.169 44.196H218.182Z" fill="#58595B"/>
<path d="M224.282 47.2586C223.566 47.2586 222.956 46.9802 222.479 46.4233V49.3935H221.153V41.2518H222.439V41.9944C222.943 41.4109 223.553 41.106 224.282 41.106C225.131 41.106 225.834 41.4109 226.364 42.0209C226.894 42.6441 227.16 43.3602 227.16 44.1956C227.16 45.0309 226.894 45.747 226.364 46.3437C225.82 46.9669 225.131 47.2719 224.282 47.2719V47.2586ZM222.492 44.5536C222.545 44.9912 222.691 45.3624 222.983 45.6542C223.301 45.9857 223.672 46.1448 224.15 46.1448C224.654 46.1448 225.065 45.9724 225.37 45.5746C225.661 45.2166 225.807 44.7525 225.807 44.169C225.807 43.5856 225.648 43.1347 225.37 42.7502C225.065 42.3789 224.654 42.1933 224.15 42.1933C223.686 42.1933 223.301 42.3657 222.983 42.6839C222.691 42.9889 222.545 43.3602 222.492 43.7845C222.466 44.0364 222.466 44.2884 222.492 44.5403V44.5536Z" fill="#58595B"/>
<path d="M227.849 46.026L228.684 45.1773C228.909 45.4956 229.161 45.7475 229.453 45.9199C229.718 46.0923 230.023 46.1718 230.328 46.1718C230.633 46.1718 230.885 46.1055 231.097 45.9862C231.283 45.8669 231.402 45.7077 231.402 45.5088C231.402 45.3232 231.31 45.1508 231.111 45.0315C230.912 44.9254 230.673 44.8193 230.395 44.7132C230.076 44.6204 229.745 44.5011 229.413 44.3685C228.962 44.2093 228.631 43.9972 228.432 43.732C228.22 43.48 228.114 43.1883 228.114 42.8568C228.114 42.3795 228.339 41.9684 228.803 41.6236C229.241 41.2921 229.771 41.1198 230.395 41.1198C231.018 41.1198 231.588 41.2789 231.999 41.5839C232.211 41.7562 232.384 41.9551 232.503 42.1938L231.681 42.9894C231.561 42.8038 231.442 42.6579 231.296 42.5386C231.031 42.3264 230.713 42.2071 230.328 42.2071C230.09 42.2071 229.891 42.2734 229.732 42.3795C229.559 42.4988 229.48 42.6314 229.48 42.7905C229.48 42.9629 229.572 43.0955 229.771 43.2148C229.957 43.3342 230.222 43.4535 230.593 43.5596C230.726 43.6126 230.885 43.6524 231.044 43.7055C231.615 43.8911 232.039 44.143 232.344 44.4215C232.636 44.7265 232.781 45.0845 232.781 45.4823C232.781 45.9729 232.543 46.3973 232.079 46.742C231.601 47.1 231.005 47.2857 230.288 47.2857C229.665 47.2857 229.122 47.1398 228.671 46.8481C228.353 46.6625 228.087 46.4105 227.849 46.0392V46.026Z" fill="#58595B"/>
<path d="M77.3714 21.0807V19.6884H68.1689V17.2087H89.5044V19.6884H80.2754V21.0807C80.5406 21.1602 80.8323 21.2398 81.0975 21.3459C81.787 21.6376 82.4103 22.0089 82.9407 22.4995C83.4711 23.0034 83.8954 23.5603 84.2269 24.2101C84.5186 24.8731 84.6777 25.5626 84.6777 26.3184C84.6777 27.0742 84.5186 27.7638 84.2269 28.4002C83.9087 29.0632 83.4843 29.6467 82.9407 30.1373C82.4103 30.6147 81.8003 31.0125 81.0975 31.2777C80.3815 31.5694 79.6257 31.702 78.8301 31.702C78.0344 31.702 77.2521 31.5694 76.5626 31.2777C75.8465 31.0125 75.2233 30.6147 74.7194 30.1373C74.189 29.66 73.7647 29.0765 73.473 28.4002C73.1547 27.7638 72.9956 27.061 72.9956 26.3184C72.9956 25.5758 73.1547 24.8731 73.473 24.2101C73.7647 23.5736 74.189 23.0167 74.7194 22.4995C75.2233 22.0221 75.8333 21.6509 76.5626 21.3459C76.8278 21.2398 77.093 21.1602 77.3582 21.0807H77.3714ZM88.006 10.1809H80.1693L88.4303 14.5832L87.1176 16.7181L78.8301 12.2893L70.5425 16.7181L69.2298 14.5832L77.4908 10.1809H69.6541V7.72778H87.9928V10.1809H88.006ZM81.8136 26.3051C81.8136 25.5095 81.5218 24.8068 80.9384 24.2233C80.3284 23.6664 79.6257 23.3747 78.8301 23.3747C78.0344 23.3747 77.3317 23.6664 76.7482 24.2233C76.1383 24.8068 75.8465 25.5095 75.8465 26.3051C75.8465 27.1008 76.1383 27.8035 76.7482 28.3605C77.3317 28.9439 78.0344 29.2356 78.8301 29.2356C79.6257 29.2356 80.3284 28.9439 80.9384 28.3605C81.5218 27.8035 81.8136 27.114 81.8136 26.3051Z" fill="#58595B"/>
<path d="M101.161 26.3868V19.717H104.065V26.3868H113.294V28.946H91.959V26.3868H101.161ZM102.633 12.225L94.9027 21.9049L92.6618 20.2209L102.633 7.76965L112.605 20.2209L110.364 21.9049L102.633 12.225Z" fill="#58595B"/>
<path d="M126.726 20.2609H116.675V7.94231H119.42V11.2706H124.035V7.94231H126.726V20.2609ZM117.657 30.206V22.4488H120.534V27.6468H137.096V30.206H117.657ZM124.035 13.7502H119.42V17.7813H124.035V13.7502ZM129.683 7.45169H132.402V22.1704H129.683V15.0762H127.257V12.5436H129.683V7.45169ZM134.112 7.42517H136.884V22.303H134.112V7.42517Z" fill="#58595B"/>
<path d="M145.9 9.89199V7.41235H148.99V9.89199H154.532V12.3716H148.645L155.023 26.6395L152.623 27.7003L147.451 15.9121L142.333 27.8859L139.88 26.7853L146.258 12.3584H140.132V9.87873H145.913L145.9 9.89199ZM158.059 19.2271H153.578V16.6679H158.059V7.43887H160.937V30.6573H158.059V19.2138V19.2271Z" fill="#58595B"/>
<path d="M176.029 27.6202H173.151V11.4694H164.241V8.8837H176.029V27.6335V27.6202ZM181.837 7.43835H184.714V30.6568H181.837V7.43835Z" fill="#58595B"/>
<path d="M201.727 13.5115C201.727 14.3336 201.567 15.1159 201.249 15.8055C200.904 16.5215 200.454 17.1315 199.883 17.6751C199.326 18.2055 198.677 18.6299 197.934 18.9348C197.165 19.2531 196.356 19.4122 195.508 19.4122C194.659 19.4122 193.85 19.2531 193.107 18.9348C192.338 18.6431 191.662 18.2188 191.132 17.6751C190.548 17.1447 190.124 16.5348 189.792 15.8055C189.448 15.1159 189.289 14.3336 189.289 13.5115C189.289 12.6893 189.448 11.9335 189.792 11.191C190.111 10.5014 190.535 9.85169 191.132 9.32128C191.662 8.79088 192.325 8.36656 193.107 8.04832C193.85 7.7566 194.659 7.59747 195.508 7.59747C196.356 7.59747 197.165 7.7566 197.934 8.04832C198.677 8.36656 199.326 8.79088 199.883 9.32128C200.44 9.85169 200.891 10.4882 201.249 11.191C201.567 11.9335 201.727 12.7159 201.727 13.5115ZM190.853 20.3934H193.678V22.5814H206.208V20.3934H209.033V30.2059H190.853V20.3934ZM198.955 13.5115C198.955 12.5833 198.61 11.7744 197.974 11.0849C197.284 10.4219 196.476 10.0771 195.547 10.0771C194.619 10.0771 193.784 10.4219 193.121 11.0849C192.431 11.7744 192.113 12.5833 192.113 13.5115C192.113 14.4397 192.431 15.2751 193.121 15.9115C193.784 16.6011 194.593 16.9193 195.547 16.9193C196.502 16.9193 197.284 16.6011 197.974 15.9115C198.61 15.2751 198.955 14.4662 198.955 13.5115ZM206.208 24.9284H193.678V27.8058H206.208V24.9284ZM202.482 12.265H206.155V7.43835H209.033V19.7304H206.155V14.7977H202.482V12.265Z" fill="#58595B"/>
<path d="M213.012 22.1315H234.348V24.6907H225.119V30.6578H222.215V24.6907H213.012V22.1315ZM217.574 10.7676H229.786V7.83716H232.637V19.0022H214.723V7.83716H217.574V10.7676ZM229.786 13.2738H217.574V16.4695H229.786V13.2738Z" fill="#58595B"/>
</svg>
