<svg width="124" height="41" viewBox="0 0 124 41" fill="none" xmlns="http://www.w3.org/2000/svg">
<mask id="mask0_175_546" style="mask-type:luminance" maskUnits="userSpaceOnUse" x="0" y="0" width="41" height="41">
<path d="M40.25 0.300049H0.349976V40.2H40.25V0.300049Z" fill="white"/>
</mask>
<g mask="url(#mask0_175_546)">
<path d="M20.29 14.6L11.83 17.42L6.19 11.78L11.83 6.14001L20.29 14.6Z" fill="#E60028"/>
<path d="M14.65 20.25L17.47 28.71L11.83 34.35L6.19 28.71L14.65 20.25Z" fill="#E60028"/>
<path d="M20.29 25.8901L28.75 23.0701L34.39 28.7101L28.75 34.3501L20.29 25.8901Z" fill="#E60028"/>
<path d="M25.94 20.25L23.12 11.79L28.76 6.15002L34.4 11.79L25.94 20.25Z" fill="#E60028"/>
<path d="M20.29 8.28005C22.49 8.28005 24.28 6.49005 24.28 4.29005C24.28 2.09005 22.49 0.300049 20.29 0.300049C18.09 0.300049 16.3 2.09005 16.3 4.29005C16.3 6.49005 18.09 8.28005 20.29 8.28005Z" fill="#E60028"/>
<path d="M24.28 36.2101C24.28 38.4101 22.49 40.2001 20.29 40.2001C18.09 40.2001 16.3 38.4101 16.3 36.2101C16.3 34.0101 18.09 32.2201 20.29 32.2201C22.49 32.2201 24.28 34.0101 24.28 36.2101Z" fill="#E60028"/>
<path d="M36.25 24.24C38.45 24.24 40.24 22.45 40.24 20.25C40.24 18.05 38.45 16.26 36.25 16.26C34.05 16.26 32.26 18.05 32.26 20.25C32.26 22.45 34.05 24.24 36.25 24.24Z" fill="#E60028"/>
<path d="M4.33002 24.24C6.53002 24.24 8.32001 22.45 8.32001 20.25C8.32001 18.05 6.53002 16.26 4.33002 16.26C2.13002 16.26 0.340027 18.05 0.340027 20.25C0.340027 22.45 2.13002 24.24 4.33002 24.24Z" fill="#E60028"/>
</g>
<path d="M58.17 30.02C58.93 30.02 59.6401 29.9 60.3101 29.65C60.9701 29.4 61.55 29.02 62.04 28.51C62.56 27.99 62.96 27.33 63.26 26.52C63.55 25.71 63.7 24.74 63.7 23.61V15.28C63.7 14.15 63.55 13.18 63.26 12.37C62.97 11.56 62.56 10.9 62.04 10.38C61.55 9.86004 60.9701 9.48004 60.3101 9.24004C59.6501 8.99004 58.93 8.87004 58.17 8.87004C57.41 8.87004 56.7 8.99004 56.03 9.24004C55.37 9.49004 54.78 9.87004 54.26 10.38C53.77 10.9 53.38 11.56 53.08 12.37C52.79 13.18 52.64 14.15 52.64 15.28V23.61C52.64 24.74 52.79 25.71 53.08 26.52C53.37 27.33 53.77 27.99 54.26 28.51C54.78 29.03 55.37 29.41 56.03 29.65C56.69 29.9 57.41 30.02 58.17 30.02ZM58.17 32.75C56.45 32.75 54.85 32.46 53.38 31.87C51.91 31.28 50.63 30.43 49.55 29.33C48.47 28.2 47.62 26.81 47.01 25.17C46.4 23.5 46.09 21.6 46.09 19.46C46.09 17.32 46.4 15.43 47.01 13.79C47.62 12.12 48.47 10.73 49.55 9.63004C50.63 8.50004 51.91 7.64004 53.38 7.05004C54.85 6.46004 56.45 6.17004 58.17 6.17004C59.89 6.17004 61.49 6.46004 62.96 7.05004C64.43 7.64004 65.71 8.50004 66.79 9.63004C67.87 10.74 68.72 12.12 69.33 13.79C69.94 15.44 70.25 17.33 70.25 19.46C70.25 21.59 69.94 23.5 69.33 25.17C68.72 26.82 67.87 28.2 66.79 29.33C65.71 30.44 64.43 31.28 62.96 31.87C61.49 32.46 59.89 32.75 58.17 32.75Z" fill="#000054"/>
<path d="M72.98 30.31H75.5601V8.58002H72.98V6.15002H84.11V8.58002H81.53V30.31H84.11V32.74H72.98V30.31Z" fill="#000054"/>
<path d="M91.84 30.31H95.34V8.80002H90.55V13H86.28V6.15002H110.37V13H106.1V8.80002H101.31V30.31H104.81V32.74H91.84V30.31Z" fill="#000054"/>
<path d="M112.54 30.31H115.12V8.58002H112.54V6.15002H123.67V8.58002H121.09V30.31H123.67V32.74H112.54V30.31Z" fill="#000054"/>
</svg>
